<svg width="16" height="13" viewBox="0 0 16 13" fill="none" xmlns="http://www.w3.org/2000/svg">
<path d="M8.06924 10.2467C7.40233 10.2467 6.8596 10.7893 6.8596 11.4562C6.8596 12.1232 7.40218 12.666 8.06924 12.666C8.73614 12.666 9.27871 12.1232 9.27871 11.4562C9.27887 10.7893 8.7363 10.2467 8.06924 10.2467ZM8.06924 12.0308C7.75246 12.0308 7.49475 11.7729 7.49475 11.4562C7.49475 11.1395 7.75246 10.8818 8.06924 10.8818C8.38586 10.8818 8.64357 11.1395 8.64357 11.4562C8.64372 11.7731 8.38601 12.0308 8.06924 12.0308ZM12.0406 10.2467C11.3737 10.2467 10.8312 10.7893 10.8312 11.4562C10.8312 12.1232 11.3737 12.666 12.0406 12.666C12.7075 12.666 13.2503 12.1232 13.2503 11.4562C13.2501 10.7893 12.7075 10.2467 12.0406 10.2467ZM12.0406 12.0308C11.7239 12.0308 11.4663 11.7729 11.4663 11.4562C11.4663 11.1395 11.724 10.8818 12.0406 10.8818C12.3574 10.8818 12.6151 11.1395 12.6151 11.4562C12.615 11.7731 12.3573 12.0308 12.0406 12.0308ZM14.9205 3.49732C14.8019 3.35537 14.623 3.27391 14.4293 3.27391H5.41655C5.37813 3.27391 5.34034 3.27709 5.30366 3.28312L4.88684 0.975798C4.82269 0.622816 4.50703 0.348116 4.15135 0.334619C4.1423 0.334143 4.13356 0.333984 4.12435 0.333984H1.25239C1.07709 0.333984 0.934814 0.476257 0.934814 0.651557C0.934814 0.826857 1.07709 0.969129 1.25239 0.969129H4.12245C4.12388 0.969129 4.12531 0.969288 4.12673 0.969288C4.18326 0.971034 4.25154 1.03169 4.26186 1.08917L4.78586 3.98972C4.7876 4.00322 4.78951 4.01639 4.79189 4.02926L5.72762 9.20743C5.79177 9.56121 6.10886 9.83654 6.4655 9.84877C6.47566 9.84925 6.4863 9.84941 6.4963 9.84941H13.3559C13.3652 9.84941 13.374 9.84925 13.383 9.84877C13.7385 9.83527 14.0542 9.56057 14.1184 9.20727L15.0539 4.02926C15.0892 3.83474 15.0404 3.64102 14.9205 3.49732ZM14.4299 3.90921C14.4297 3.91128 14.4294 3.91366 14.4289 3.9162L14.0194 6.18271H5.82638L5.41671 3.91572C5.4164 3.9135 5.41608 3.91144 5.41576 3.90921H14.4299ZM13.3582 9.21394C13.3568 9.21394 13.3554 9.2141 13.354 9.2141H6.4917C6.49043 9.2141 6.489 9.21394 6.48773 9.21394C6.4312 9.2122 6.36308 9.15154 6.3526 9.09406L5.94118 6.81722H13.9048L13.4935 9.09374C13.4829 9.1517 13.4146 9.2122 13.3582 9.21394Z" fill="#0193C1" stroke="#0193C1" stroke-width="0.5"/>
</svg>
