<svg width="26" height="27" viewBox="0 0 26 27" fill="none" xmlns="http://www.w3.org/2000/svg">
<path d="M0.000568902 12.974C0.000568902 9.81511 0.000568902 6.65579 0.000568902 3.49604C-0.00777885 3.03556 0.0758181 2.57813 0.246283 2.15091C0.416748 1.72369 0.67068 1.33544 0.992902 1.00929C1.31512 0.683133 1.69907 0.425729 2.1219 0.252409C2.54474 0.0790877 2.99773 -0.00662357 3.45406 0.00039915H22.3174C23.1848 -0.00202583 24.021 0.327227 24.6576 0.921854C25.2942 1.51648 25.684 2.33235 25.7485 3.20529C25.7867 3.66731 25.7972 4.12799 25.7972 4.59001C25.7972 10.3147 25.7972 16.0386 25.7972 21.7615C25.8076 22.224 25.7732 22.6865 25.6946 23.1423C25.5334 23.9833 25.0777 24.7378 24.4108 25.2677C23.7438 25.7976 22.9102 26.0677 22.0622 26.0286C20.4242 26.0524 18.7876 26.0285 17.1497 26.0392C16.8168 26.0392 16.6812 25.9276 16.6812 25.5811C16.6733 22.7267 16.6917 19.8723 16.7364 17.0179C16.7364 16.7365 16.8589 16.6528 17.118 16.6555C17.9824 16.6635 18.8481 16.6555 19.7125 16.6555C20.2243 16.6555 20.4005 16.5134 20.4689 15.9996C20.5926 15.0849 20.6978 14.1662 20.7912 13.2461C20.8307 12.8558 20.5926 12.6341 20.1519 12.6315C19.1823 12.6235 18.214 12.6315 17.2444 12.6315C16.7182 12.6315 16.6786 12.6036 16.6865 12.0752C16.6606 11.2429 16.6769 10.4098 16.7352 9.57923C16.7367 9.21638 16.8757 8.86789 17.1238 8.60522C17.3719 8.34255 17.7102 8.18562 18.0692 8.16664C18.6946 8.10101 19.3238 8.08148 19.9519 8.10821C20.5334 8.09228 20.6715 7.96219 20.6729 7.37803C20.6729 6.65182 20.6729 5.92427 20.6729 5.19673C20.6729 4.79845 20.4899 4.56876 20.1215 4.57141C18.9838 4.51177 17.8432 4.5353 16.7088 4.64179C15.6632 4.77372 14.6983 5.2773 13.9873 6.0622C13.2763 6.84709 12.8657 7.86195 12.8291 8.92473C12.7475 10.0094 12.7845 11.0901 12.7779 12.1748C12.7779 12.5173 12.6672 12.65 12.3239 12.6381C11.7213 12.6182 11.1189 12.6288 10.5163 12.6235C10.0467 12.6235 9.85853 12.7815 9.85853 13.2461C9.85327 14.1719 9.85547 15.0973 9.86512 16.0222C9.85324 16.1086 9.86131 16.1966 9.88889 16.2792C9.91646 16.3619 9.96272 16.4369 10.0239 16.4984C10.0852 16.56 10.1597 16.6063 10.2417 16.6338C10.3237 16.6613 10.411 16.6691 10.4966 16.6568C11.1255 16.6687 11.7556 16.6727 12.3831 16.6568C12.6949 16.6475 12.8383 16.7405 12.8357 17.079C12.8103 19.9467 12.7914 22.8143 12.7792 25.682C12.7792 26.0113 12.5924 26.0392 12.3464 26.0392H8.77048C7.15885 26.0392 5.54713 26.0458 3.93682 26.0392C3.01261 26.1006 2.09667 25.8307 1.35039 25.2771C0.92871 24.959 0.58688 24.5455 0.352438 24.0698C0.117996 23.5941 -0.0025136 23.0695 0.000568902 22.5382C0.00232306 19.3493 0.00232306 16.1612 0.000568902 12.974Z" fill="#F0F0F0"/>
</svg>
