<svg width="15" height="15" viewBox="0 0 15 15" fill="none" xmlns="http://www.w3.org/2000/svg">
<path d="M7.49225 0.5C3.63178 0.5 0.5 3.63178 0.5 7.49225C0.5 11.3527 3.63178 14.5 7.49225 14.5C11.3527 14.5 14.5 11.3527 14.5 7.49225C14.5 3.63178 11.3527 0.5 7.49225 0.5ZM7.49225 13.3837C4.25194 13.3837 1.61628 10.7481 1.61628 7.47674C1.61628 4.23643 4.25194 1.60078 7.49225 1.60078C10.7481 1.60078 13.3992 4.23643 13.3992 7.47674C13.3837 10.7481 10.7481 13.3837 7.49225 13.3837Z" fill="#F0F0F0"/>
<path d="M7.41468 3.91113C6.79452 3.91113 6.2984 4.06617 5.9108 4.39175C5.5077 4.70183 5.33716 5.15144 5.33716 5.67857L5.35266 5.72509H6.3139C6.3139 5.3995 6.42243 5.15144 6.62398 4.9964C6.84103 4.82586 7.1046 4.73284 7.43018 4.73284C7.75576 4.73284 8.05034 4.84137 8.23638 5.02741C8.43793 5.22896 8.53096 5.49253 8.53096 5.84912C8.53096 6.15919 8.46894 6.40726 8.3139 6.62431C8.17437 6.82586 7.94181 7.13594 7.60072 7.53904C7.27514 7.84912 7.04258 8.09718 6.98057 8.26772C6.88755 8.46927 6.84103 8.79485 6.84103 9.29098H7.83328C7.83328 8.9809 7.84879 8.76385 7.8953 8.62431C7.9108 8.46927 8.03483 8.31423 8.20538 8.14369C8.60848 7.7716 8.91855 7.384 9.16662 7.02741C9.38367 6.67082 9.5232 6.26772 9.5232 5.83361C9.5232 5.22896 9.35266 4.76385 8.96506 4.40726C8.57747 4.06617 8.06584 3.91113 7.41468 3.91113Z" fill="#F0F0F0"/>
<path d="M7.84918 10.2986H6.82593V11.3374H7.84918V10.2986Z" fill="#F0F0F0"/>
</svg>
