<svg width="27" height="27" viewBox="0 0 27 27" fill="none" xmlns="http://www.w3.org/2000/svg">
<path d="M0.798828 19.6871V6.44934C0.901705 5.60637 1.14426 4.78715 1.51604 4.0264C2.06181 2.8406 2.92764 1.83676 4.01288 1.13166C5.09811 0.42655 6.35811 0.0491829 7.64612 0.0435176C11.6249 -0.040123 15.614 0.0222966 19.5901 0.0236242C20.2569 0.03304 20.9181 0.149082 21.5494 0.367483C22.987 0.847619 24.2377 1.77888 25.1214 3.02732C26.0052 4.27575 26.4764 5.77696 26.4674 7.31492C26.4386 11.1584 26.4596 15.0006 26.4596 18.8427C26.4679 19.1822 26.45 19.5218 26.406 19.8584C26.2554 21.0472 25.8141 22.1786 25.1222 23.1492C24.4304 24.1198 23.51 24.8987 22.4455 25.4145C21.7141 25.7692 20.9321 26.0039 20.1284 26.1102H7.10399L6.68734 26.0292C5.5878 25.8459 4.54688 25.3996 3.65029 24.7272C2.75369 24.0548 2.02708 23.1756 1.53039 22.1618C1.15014 21.3851 0.902704 20.5482 0.798828 19.6871ZM24.1279 13.0675V7.41718C24.1321 7.08655 24.1134 6.756 24.0718 6.42806C23.8917 5.33436 23.347 4.33691 22.5291 3.60301C21.7112 2.86911 20.6698 2.44344 19.5797 2.39741C15.6389 2.3775 11.698 2.3974 7.7571 2.38943C7.53183 2.3925 7.30703 2.41158 7.08438 2.44652C6.00821 2.62831 5.02642 3.1812 4.30419 4.01222C3.58196 4.84324 3.16334 5.90172 3.11868 7.00959C3.09908 11.0137 3.1187 15.0205 3.11086 19.0246C3.11325 19.2536 3.13198 19.4821 3.16699 19.7084C3.34608 20.802 3.89019 21.7997 4.70776 22.5338C5.52534 23.2678 6.56655 23.6934 7.65649 23.739C11.5974 23.7589 15.5383 23.739 19.4778 23.747C19.7031 23.7439 19.9279 23.7249 20.1506 23.6899C21.226 23.5063 22.2069 22.9529 22.929 22.1223C23.6511 21.2917 24.0707 20.2342 24.1175 19.1268C24.1437 17.1075 24.1279 15.0882 24.1279 13.0675Z" fill="#F0F0F0"/>
<path d="M20.253 13.0891C20.2491 14.4222 19.8563 15.7242 19.1242 16.8304C18.3921 17.9365 17.3538 18.7972 16.1404 19.3034C14.927 19.8096 13.5931 19.9387 12.3075 19.6743C11.0219 19.4098 9.84235 18.7638 8.91808 17.8179C7.99382 16.872 7.36631 15.6687 7.11501 14.3602C6.86372 13.0518 6.99989 11.697 7.50631 10.4672C8.01272 9.23745 8.86673 8.18799 9.96009 7.45157C11.0535 6.71516 12.337 6.32488 13.6487 6.33013C15.406 6.33716 17.0888 7.053 18.3271 8.32036C19.5655 9.58772 20.2582 11.3029 20.253 13.0891ZM9.32771 13.0453C9.32283 13.9084 9.56981 14.7536 10.0374 15.4741C10.505 16.1946 11.1724 16.758 11.955 17.0931C12.7376 17.4283 13.6002 17.5201 14.4341 17.357C15.268 17.1938 16.0357 16.7831 16.64 16.1767C17.2443 15.5703 17.6582 14.7954 17.8293 13.95C18.0004 13.1045 17.9212 12.2265 17.6015 11.4269C17.2817 10.6273 16.7359 9.94195 16.0331 9.45752C15.3303 8.97308 14.5018 8.71131 13.6527 8.70526C13.0878 8.69983 12.5275 8.80798 12.0039 9.02347C11.4804 9.23896 11.004 9.55757 10.602 9.96093C10.2001 10.3643 9.88061 10.8444 9.66192 11.3738C9.44324 11.9031 9.32958 12.4712 9.32771 13.0453Z" fill="#F0F0F0"/>
<path d="M20.499 7.79986C20.2774 7.80038 20.0579 7.75644 19.8531 7.67049C19.6483 7.58454 19.4622 7.4583 19.3055 7.29904C19.1489 7.13978 19.0246 6.95062 18.9401 6.74243C18.8555 6.53425 18.8122 6.31114 18.8127 6.08591C18.7965 5.84918 18.8285 5.61161 18.9068 5.38802C18.985 5.16443 19.1077 4.95961 19.2673 4.7864C19.4269 4.6132 19.6199 4.4753 19.8343 4.38132C20.0487 4.28735 20.2798 4.23933 20.5132 4.24025C20.7467 4.24116 20.9775 4.29102 21.1912 4.38667C21.4049 4.48232 21.5968 4.62171 21.755 4.79617C21.9133 4.97062 22.0346 5.17639 22.1111 5.40058C22.1876 5.62478 22.2177 5.86261 22.1997 6.0992C22.198 6.3244 22.1527 6.54701 22.0663 6.75438C21.9799 6.96176 21.8541 7.14981 21.6962 7.30775C21.5382 7.46569 21.3512 7.59042 21.1458 7.67487C20.9404 7.75931 20.7206 7.80178 20.499 7.79986Z" fill="#F0F0F0"/>
</svg>
