<svg width="28" height="27" viewBox="0 0 28 27" fill="none" xmlns="http://www.w3.org/2000/svg">
<path d="M6.51311 27H0.91523V8.97364H6.51311V27ZM3.71079 6.51471C1.92102 6.51471 0.46875 5.03164 0.46875 3.24193C0.46875 2.38212 0.810322 1.55752 1.41832 0.949539C2.02632 0.341559 2.85095 0 3.71079 0C4.57064 0 5.39526 0.341559 6.00327 0.949539C6.61127 1.55752 6.95284 2.38212 6.95284 3.24193C6.95284 5.03164 5.50057 6.51471 3.71079 6.51471ZM27.4639 27H21.8786V18.225C21.8786 16.1335 21.8362 13.4518 18.9683 13.4518C16.0579 13.4518 15.6115 15.7236 15.6115 18.0746V27H10.0194V8.97364H15.3877V11.4326H15.4659C16.2132 10.016 18.0387 8.52139 20.7619 8.52139C26.4273 8.52139 27.4688 12.2522 27.4688 17.0978V27H27.4639Z" fill="#F0F0F0"/>
</svg>
