<svg width="124" height="47" viewBox="0 0 124 47" fill="none" xmlns="http://www.w3.org/2000/svg">
<g clip-path="url(#clip0_1_15)">
<path d="M56.8463 41.4048H60.0755V29.2855H56.8463V41.4048ZM56.8463 27.3955H60.0755V24.5133H56.8463V27.3955Z" fill="#0193C1"/>
<path d="M62.1562 45.3737H65.3854V40.0346H65.433C66.1215 41.074 67.2375 41.7591 68.9471 41.7591C72.0813 41.7591 74.2182 39.2786 74.2182 35.3569C74.2182 31.5769 72.1525 28.9547 68.9233 28.9547C67.2613 28.9547 66.1215 29.7343 65.338 30.7973H65.2667V29.2855H62.1562V45.3737ZM68.2586 39.0895C66.3353 39.0895 65.3142 37.6485 65.3142 35.4514C65.3142 33.278 66.1215 31.5533 68.1398 31.5533C70.1343 31.5533 70.9416 33.1598 70.9416 35.4514C70.9416 37.743 69.8969 39.0895 68.2586 39.0895Z" fill="#0193C1"/>
<path d="M80.6599 41.7591C83.6991 41.7591 85.7885 40.2944 85.7885 37.8611C85.7885 35.0262 83.5329 34.4592 81.4909 34.034C79.7575 33.6796 78.1429 33.585 78.1429 32.5456C78.1429 31.6715 78.9739 31.199 80.2325 31.199C81.6096 31.199 82.4406 31.6715 82.5831 32.9709H85.5037C85.2662 30.5375 83.4854 28.9547 80.28 28.9547C77.5019 28.9547 75.3174 30.2068 75.3174 32.829C75.3174 35.475 77.4544 36.0657 79.6388 36.4909C81.3009 36.8216 82.8443 36.9398 82.8443 38.0974C82.8443 38.9478 82.037 39.4912 80.6123 39.4912C79.164 39.4912 78.1666 38.877 77.953 37.4831H74.9612C75.1512 40.0582 77.122 41.7591 80.6599 41.7591Z" fill="#0193C1"/>
<path d="M98.0488 41.4048V29.2855H94.8196V36.2782C94.8196 37.8847 93.8936 39.0187 92.374 39.0187C90.9969 39.0187 90.3557 38.2391 90.3557 36.8216V29.2855H87.1503V37.365C87.1503 40.0109 88.6699 41.7355 91.3768 41.7355C93.0863 41.7355 94.036 41.0976 94.8672 39.9872H94.9384V41.4048H98.0488Z" fill="#0193C1"/>
<path d="M100.138 41.4048H103.367V34.3646C103.367 32.7582 104.245 31.7188 105.551 31.7188C106.738 31.7188 107.427 32.4274 107.427 33.7977V41.4048H110.656V34.3646C110.656 32.7582 111.487 31.7188 112.841 31.7188C114.028 31.7188 114.717 32.4274 114.717 33.7977V41.4048H117.946V33.2544C117.946 30.6084 116.497 28.9547 113.933 28.9547C112.39 28.9547 111.107 29.7579 110.276 31.0809H110.229C109.635 29.8052 108.401 28.9547 106.857 28.9547C105.171 28.9547 103.984 29.8052 103.319 30.9155H103.248V29.2855H100.138V41.4048Z" fill="#0193C1"/>
<path d="M56.8938 20.6471H60.123V3.75564H56.8938V20.6471Z" fill="#0193C1"/>
<path d="M68.0188 21.0015C71.7942 21.0015 74.3823 18.2138 74.3823 14.5993C74.3823 10.9847 71.7942 8.19705 68.0188 8.19705C64.2436 8.19705 61.6554 10.9847 61.6554 14.5993C61.6554 18.2138 64.2436 21.0015 68.0188 21.0015ZM68.0188 18.5446C66.0243 18.5446 64.9322 16.9617 64.9322 14.5993C64.9322 12.2368 66.0243 10.6304 68.0188 10.6304C69.9896 10.6304 71.1056 12.2368 71.1056 14.5993C71.1056 16.9617 69.9896 18.5446 68.0188 18.5446Z" fill="#0193C1"/>
<path d="M81.2495 24.7815C83.0541 24.7815 84.6213 24.3562 85.6422 23.4112C86.5444 22.5843 87.0906 21.4267 87.0906 19.7258V8.52779H83.9801V9.80351H83.9326C83.1966 8.78765 82.0806 8.19705 80.5609 8.19705C77.4743 8.19705 75.2897 10.5122 75.2897 14.1268C75.2897 17.7886 77.9491 19.9147 80.656 19.9147C82.1994 19.9147 83.1253 19.3006 83.8377 18.4973H83.9089V19.8203C83.9089 21.4739 83.0304 22.348 81.2021 22.348C79.7061 22.348 79.0176 21.7575 78.7564 21.0015H75.551C75.8834 23.3639 77.9254 24.7815 81.2495 24.7815ZM81.2021 17.3397C79.54 17.3397 78.4477 16.1349 78.4477 14.0796C78.4477 12.0479 79.54 10.7721 81.1783 10.7721C83.1253 10.7721 84.0751 12.284 84.0751 14.0559C84.0751 15.8513 83.244 17.3397 81.2021 17.3397Z" fill="#0193C1"/>
<path d="M94.9397 21.0015C98.715 21.0015 101.303 18.2138 101.303 14.5993C101.303 10.9847 98.715 8.19705 94.9397 8.19705C91.1645 8.19705 88.5763 10.9847 88.5763 14.5993C88.5763 18.2138 91.1645 21.0015 94.9397 21.0015ZM94.9397 18.5446C92.9452 18.5446 91.8529 16.9617 91.8529 14.5993C91.8529 12.2368 92.9452 10.6304 94.9397 10.6304C96.9105 10.6304 98.0265 12.2368 98.0265 14.5993C98.0265 16.9617 96.9105 18.5446 94.9397 18.5446Z" fill="#0193C1"/>
<path d="M104.134 16.0168H118.095V13.2527H104.134V16.0168Z" fill="#0193C1"/>
<path d="M119.119 27.2267C119.119 26.6831 119.562 26.2423 120.109 26.2423H122.087C122.634 26.2423 123.076 26.6831 123.076 27.2267C123.076 27.7703 122.634 28.211 122.087 28.211H120.109C119.562 28.211 119.119 27.7703 119.119 27.2267Z" fill="#0193C1"/>
<path fill-rule="evenodd" clip-rule="evenodd" d="M24.235 0C37.2795 0 47.8541 10.5213 47.8541 23.5C47.8541 36.4787 37.2795 47 24.235 47C11.1906 47 0.615993 36.4787 0.615993 23.5C0.615993 10.5213 11.1906 0 24.235 0ZM23.3813 1.75849C20.6869 2.13579 18.1211 4.29002 16.1294 7.89294C15.5517 8.93802 15.0305 10.0926 14.5761 11.3393C17.2843 10.6621 20.2592 10.2629 23.3813 10.2012V1.75849ZM12.58 11.9037C13.1448 10.1398 13.8359 8.51687 14.6334 7.07426C15.6207 5.28819 16.7924 3.74584 18.1126 2.56123C10.9337 4.63565 5.27512 10.2657 3.1902 17.4084C4.3808 16.0949 5.93098 14.9291 7.7261 13.9468C9.17601 13.1533 10.8071 12.4657 12.58 11.9037ZM12.0126 13.8898C11.3321 16.5843 10.9309 19.5442 10.8689 22.6506H2.38339C2.7626 19.9696 4.92775 17.4168 8.54893 15.4353C9.5993 14.8605 10.7597 14.3418 12.0126 13.8898ZM12.5767 22.6506C12.6472 19.2606 13.1376 16.078 13.9492 13.266C16.7754 12.4585 19.9743 11.9704 23.3813 11.9003V15.5697C22.1103 18.8073 19.5178 21.3864 16.2637 22.6506H12.5767ZM10.8689 24.3494H2.38339C2.7626 27.0304 4.92775 29.5831 8.54893 31.5647C9.5993 32.1395 10.7597 32.6582 12.0126 33.1102C11.3321 30.4157 10.9309 27.4558 10.8689 24.3494ZM13.9492 33.734C13.1376 30.922 12.6472 27.7394 12.5767 24.3494H16.2637C19.5178 25.6136 22.1104 28.1927 23.3813 31.4303V35.0997C19.9743 35.0296 16.7754 34.5415 13.9492 33.734ZM12.58 35.0963C10.8071 34.5343 9.17601 33.8467 7.7261 33.0532C5.93098 32.0709 4.3808 30.9051 3.1902 29.5916C5.27512 36.7343 10.9337 42.3644 18.1126 44.4387C16.7924 43.2541 15.6207 41.7118 14.6334 39.9257C13.8359 38.4831 13.1448 36.8602 12.58 35.0963ZM23.3813 45.2415C20.6869 44.8642 18.1211 42.71 16.1294 39.1071C15.5517 38.062 15.0305 36.9073 14.5761 35.6608C17.2843 36.3378 20.2592 36.7371 23.3813 36.7988V45.2415ZM30.3574 44.4387C31.6776 43.2541 32.8494 41.7118 33.8368 39.9257C34.6341 38.4831 35.3252 36.8602 35.8901 35.0963C37.6629 34.5343 39.2941 33.8467 40.744 33.0532C42.5391 32.0709 44.0893 30.9051 45.2798 29.5916C43.195 36.7343 37.5363 42.3644 30.3574 44.4387ZM33.8939 35.6608C33.4396 36.9073 32.9183 38.062 32.3406 39.1071C30.3491 42.71 27.7833 44.8642 25.0887 45.2415V36.7988C28.2108 36.7371 31.1858 36.3378 33.8939 35.6608ZM36.4574 33.1102C37.7103 32.6582 38.8708 32.1395 39.9212 31.5647C43.5423 29.5831 45.7075 27.0304 46.0867 24.3494H37.6012C37.5392 27.4558 37.1379 30.4157 36.4574 33.1102ZM35.8935 24.3494C35.823 27.7394 35.3324 30.922 34.5209 33.734C31.6946 34.5415 28.4959 35.0296 25.0887 35.0997V31.433C26.3593 28.1942 28.9523 25.6139 32.2074 24.3494H35.8935ZM37.6012 22.6506H46.0867C45.7075 19.9696 43.5423 17.4168 39.9212 15.4353C38.8708 14.8605 37.7103 14.3418 36.4574 13.8898C37.1379 16.5843 37.5392 19.5442 37.6012 22.6506ZM34.5209 13.266C35.3324 16.078 35.823 19.2606 35.8935 22.6506H32.2074C28.9523 21.3861 26.3593 18.8058 25.0887 15.567V11.9003C28.4959 11.9704 31.6946 12.4585 34.5209 13.266ZM35.8901 11.9037C37.6629 12.4657 39.2941 13.1533 40.744 13.9468C42.5391 14.9291 44.0893 16.0949 45.2798 17.4084C43.195 10.2657 37.5363 4.63565 30.3574 2.56123C31.6776 3.74584 32.8494 5.28819 33.8368 7.07426C34.6341 8.51687 35.3252 10.1398 35.8901 11.9037ZM25.0887 1.75849C27.7833 2.13579 30.3491 4.29002 32.3406 7.89294C32.9183 8.93804 33.4396 10.0926 33.8939 11.3393C31.1858 10.6621 28.2108 10.2629 25.0887 10.2012V1.75849Z" fill="#0193C1"/>
</g>
<defs>
<clipPath id="clip0_1_15">
<rect width="124" height="47" fill="white"/>
</clipPath>
</defs>
</svg>
