<svg width="14" height="14" viewBox="0 0 14 14" fill="none" xmlns="http://www.w3.org/2000/svg">
<path fill-rule="evenodd" clip-rule="evenodd" d="M3.26061 0.277246C3.08336 0.0999847 2.84272 0 2.59167 0C2.34062 0 2.09997 0.0999847 1.92272 0.277246C1.62026 0.579726 1.20868 0.991337 0.831469 1.36825C0.104493 2.09559 -0.172736 3.15916 0.107332 4.14892C0.107647 4.14955 0.107647 4.14987 0.107962 4.1505C0.570957 5.75184 1.58084 8.32087 3.63025 10.3704C5.67966 12.42 8.24853 13.4299 9.85008 13.8923C9.85071 13.8923 9.85103 13.8926 9.85166 13.8926C10.841 14.1727 11.9042 13.8958 12.6312 13.1687C13.0087 12.7921 13.4203 12.3805 13.7228 12.078C13.9003 11.9008 14 11.6601 14 11.4091C14 11.158 13.9 10.9173 13.7228 10.7401C13.1226 10.1398 12.061 9.07817 11.4608 8.47794C11.2835 8.30068 11.0429 8.2007 10.7918 8.2007C10.5408 8.2007 10.3001 8.30037 10.1229 8.47794L8.94428 9.65664C8.86385 9.73707 8.74621 9.76797 8.63709 9.73769C8.07979 9.53047 6.97308 9.03654 5.96856 8.03195C4.96688 7.0302 4.47298 5.92658 4.27113 5.37114C4.23738 5.25759 4.26734 5.13962 4.34777 5.05951C4.3484 5.05856 4.34934 5.05762 4.35029 5.05699C4.65244 4.74788 5.15738 4.2426 5.5226 3.87735C5.70016 3.70009 5.79983 3.45943 5.79983 3.20836C5.79983 2.9573 5.69985 2.71664 5.5226 2.53938L3.26061 0.277246ZM2.81465 0.723238L5.07664 2.98537C5.13561 3.04435 5.16904 3.12478 5.16904 3.20836C5.16904 3.29195 5.13561 3.37238 5.07664 3.43136C4.70984 3.79787 4.20332 4.30473 3.8996 4.61541C3.65328 4.86301 3.56465 5.227 3.66905 5.5607C3.67062 5.56512 3.67188 5.56921 3.67346 5.57331C3.88982 6.17291 4.42598 7.38157 5.5226 8.47794C6.61827 9.57368 7.82559 10.1099 8.42294 10.3313C8.42798 10.3332 8.43303 10.3348 8.43808 10.3367C8.77428 10.442 9.1414 10.3518 9.39056 10.1023L10.5689 8.92393C10.6278 8.86495 10.7083 8.83152 10.7918 8.83152C10.8754 8.83152 10.9558 8.86495 11.0148 8.92393L13.2768 11.1861C13.3358 11.245 13.3692 11.3255 13.3692 11.4091C13.3692 11.4926 13.3358 11.5731 13.2768 11.6321C12.9743 11.9342 12.5631 12.3458 12.1856 12.7224L12.1852 12.7228C11.6201 13.288 10.7931 13.5034 10.0239 13.2858C8.49296 12.8439 6.03511 11.8831 4.07622 9.92442C2.11764 7.9654 1.15695 5.5074 0.714145 3.97639C0.496525 3.20679 0.712252 2.37978 1.27775 1.81456L2.36869 0.723238C2.42766 0.664256 2.50809 0.630823 2.59167 0.630823C2.67525 0.630823 2.75567 0.664256 2.81465 0.723238Z" fill="#F0F0F0"/>
</svg>
