<svg width="22" height="27" viewBox="0 0 22 27" fill="none" xmlns="http://www.w3.org/2000/svg">
<path d="M21.2289 3.81426C21.0851 3.72045 20.9412 3.72045 20.7973 3.76735C19.5982 4.2833 18.3512 3.90807 17.6318 2.96998C17.2961 2.54784 17.1042 1.98499 17.1042 1.46904C17.1042 1.32833 17.0563 1.23452 16.9604 1.14071C16.8644 1.0469 16.7685 1 16.6246 1H11.7325C11.4448 1 11.2529 1.18762 11.2529 1.46904V18.1201C11.2529 18.167 11.2529 18.167 11.2529 18.2139C11.157 19.0582 10.4855 19.6679 9.62223 19.6679C8.71096 19.6679 7.94357 18.9174 7.94357 18.0263C7.94357 17.182 8.56707 16.5253 9.43038 16.4315C9.67019 16.3846 9.86203 16.197 9.86203 15.9625V10.5216C9.86203 10.2402 9.67019 10.0525 9.38242 10.0525C9.38242 10.0525 9.33446 10.0525 9.2865 10.0525C4.87403 10.2402 1.46875 13.7111 1.46875 18.0263C1.46875 22.4353 5.11383 26 9.62223 26C13.8429 26 17.392 22.8105 17.7277 18.7298C17.7757 18.6829 17.7757 18.5891 17.7757 18.5422V9.48968C18.8309 9.7242 19.934 9.81801 21.0851 9.63039C21.3249 9.58349 21.4688 9.39587 21.4688 9.16135V4.18949C21.4688 4.04878 21.3728 3.90807 21.2289 3.81426ZM20.5095 8.78612C19.4064 8.87993 18.3992 8.78612 17.392 8.45779C17.2481 8.41088 17.1042 8.45779 16.9604 8.50469C16.8165 8.5985 16.7685 8.73921 16.7685 8.87993V18.3546C16.7685 18.4015 16.7685 18.4484 16.7205 18.4953C16.4807 22.1538 13.3153 25.0619 9.57427 25.0619C5.59345 25.0619 2.38002 21.9193 2.38002 18.0263C2.38002 14.3677 5.1618 11.3659 8.85484 11.0375V15.5872C7.75172 15.9156 6.93638 16.9006 6.93638 18.0263C6.93638 19.4334 8.13542 20.606 9.57427 20.606C10.8692 20.606 11.9723 19.6679 12.1642 18.4484C12.2122 18.4015 12.2122 18.3077 12.2122 18.2608V1.93809H16.193C16.2889 2.54784 16.5287 3.06379 16.8644 3.53283C17.6798 4.61163 19.1186 5.17448 20.5095 4.84615V8.78612Z" fill="#F0F0F0" stroke="#F0F0F0"/>
</svg>
