<svg width="27" height="27" viewBox="0 0 27 27" fill="none" xmlns="http://www.w3.org/2000/svg">
<path d="M25.8547 9.67373C24.6738 5.14691 21.0327 1.50577 16.4566 0.374063C11.8806 -0.757643 6.91096 0.718495 3.76186 4.26123C-0.125299 8.59123 -0.617345 15.0862 2.53175 20.0067C2.28573 21.7781 2.08891 23.5494 1.84288 25.3208C1.74448 25.9605 2.53175 26.4033 3.073 26.2557C4.79516 25.7636 6.56653 25.3208 8.28869 24.8287C12.9631 26.7477 18.3756 25.862 22.1152 22.4177C25.6087 19.2194 27.0356 14.2006 25.8547 9.67373ZM22.4104 19.1702C19.4581 23.5002 13.652 25.124 8.87914 22.959C8.87914 22.959 8.87914 22.959 8.82994 22.959C8.63312 22.8606 8.38709 22.8114 8.09187 22.8606C6.71414 23.2542 5.33641 23.5986 3.95868 23.9923C4.1063 22.8114 4.25391 21.6797 4.40152 20.4987C4.45073 20.1051 4.54914 19.6623 4.35232 19.2686C4.2047 19.0226 4.00789 18.7766 3.86027 18.4814C3.51584 17.8909 3.22061 17.2512 2.97459 16.6116C2.18732 14.3482 2.13811 11.8387 2.87618 9.57532C4.1555 5.58975 7.79664 2.58827 11.9298 2.09622C16.2106 1.50577 20.4914 3.57236 22.7056 7.1643C24.969 10.8546 24.8214 15.5783 22.4104 19.1702Z" fill="#F0F0F0"/>
<path d="M20.1962 14.5438L17.982 12.8217C17.2931 12.2804 16.3582 12.3788 15.7678 12.9693L15.1281 13.6089C14.6361 13.3137 14.1932 12.9693 13.7504 12.5756C13.3567 12.182 13.0123 11.6899 12.7171 11.1979L13.3567 10.5582C13.9472 9.96778 13.9964 9.0329 13.5044 8.34403L11.7822 6.08062C11.4378 5.58858 10.8965 5.29335 10.3061 5.29335C9.7156 5.24414 9.12514 5.49017 8.73151 5.8838L6.81253 7.80278C5.73003 8.88528 5.484 10.5582 6.17287 11.936C7.10775 13.7073 8.28867 15.2819 9.66639 16.6596C11.0441 18.0373 12.6679 19.2182 14.39 20.1531C14.9313 20.4484 15.4725 20.5468 16.0138 20.5468C16.8995 20.5468 17.8344 20.2023 18.474 19.5135L20.393 17.5945C20.7866 17.2009 21.0327 16.6104 20.9834 16.0199C20.9834 15.4295 20.6882 14.8882 20.1962 14.5438ZM19.0153 16.2168L17.0963 18.1357C16.6042 18.6278 15.8662 18.7262 15.2757 18.431C13.7012 17.5945 12.2742 16.5612 10.9949 15.2819C9.7156 14.0026 8.6823 12.5756 7.84582 11.0011C7.5506 10.4106 7.64901 9.67256 8.14105 9.18051L10.06 7.26153C10.06 7.26153 10.06 7.26153 10.1092 7.26153C10.1584 7.26153 10.1584 7.26153 10.1584 7.31074L11.733 9.37733L11.0933 9.96778C10.6013 10.4598 10.4537 11.2471 10.7981 11.8868C11.1917 12.674 11.733 13.3629 12.3234 13.9534C12.9139 14.5438 13.6028 15.0851 14.39 15.4787C15.0297 15.8231 15.7678 15.6755 16.2598 15.1835L16.9487 14.4946L18.9661 16.0692C18.9661 16.0692 19.0153 16.0692 19.0153 16.1184C19.0153 16.1676 19.0153 16.2168 19.0153 16.2168Z" fill="#F0F0F0"/>
</svg>
