<svg width="17" height="17" viewBox="0 0 17 17" fill="none" xmlns="http://www.w3.org/2000/svg">
<path d="M15.865 6.45468C15.1686 3.78518 13.0214 1.63796 10.3229 0.970588C7.62433 0.303212 4.69368 1.1737 2.83663 3.26288C0.544338 5.81632 0.254174 9.64648 2.11122 12.5481C1.96614 13.5927 1.85007 14.6373 1.70499 15.6819C1.64696 16.0591 2.11122 16.3202 2.4304 16.2332C3.44597 15.943 4.49056 15.6819 5.50614 15.3917C8.26269 16.5234 11.4545 16.0011 13.6597 13.9699C15.7199 12.0839 16.5614 9.12419 15.865 6.45468ZM13.8338 12.0548C12.0928 14.6083 8.66892 15.5658 5.85433 14.2891C5.85433 14.2891 5.85433 14.2891 5.82531 14.2891C5.70925 14.2311 5.56417 14.2021 5.39007 14.2311C4.57761 14.4632 3.76515 14.6663 2.9527 14.8984C3.03974 14.2021 3.12679 13.5347 3.21384 12.8383C3.24286 12.6062 3.30089 12.345 3.18483 12.1129C3.09778 11.9678 2.98171 11.8227 2.89466 11.6486C2.69155 11.3004 2.51745 10.9232 2.37237 10.546C1.90811 9.21124 1.87909 7.7314 2.31434 6.39665C3.06876 4.04632 5.21597 2.27632 7.65335 1.98616C10.1778 1.63796 12.7022 2.85665 14.0079 4.97485C15.3427 7.15107 15.2556 9.93664 13.8338 12.0548Z" fill="#0193C1"/>
<path d="M12.5279 9.32692L11.2222 8.31135C10.8159 7.99217 10.2646 8.0502 9.91644 8.3984L9.53922 8.77561C9.24906 8.60151 8.98791 8.3984 8.72677 8.16626C8.49464 7.93413 8.29152 7.64397 8.11742 7.35381L8.49464 6.97659C8.84283 6.6284 8.87185 6.07709 8.58168 5.67086L7.56611 4.33611C7.363 4.04594 7.04382 3.87184 6.69562 3.87184C6.34742 3.84283 5.99923 3.98791 5.7671 4.22004L4.63546 5.35168C3.9971 5.99004 3.85202 6.97659 4.25825 7.78905C4.80956 8.83364 5.50595 9.76216 6.31841 10.5746C7.13087 11.3871 8.08841 12.0835 9.10398 12.6348C9.42316 12.8089 9.74234 12.8669 10.0615 12.8669C10.5838 12.8669 11.1351 12.6638 11.5123 12.2576L12.644 11.1259C12.8761 10.8938 13.0212 10.5456 12.9922 10.1974C12.9922 9.84921 12.8181 9.53003 12.5279 9.32692ZM11.8315 10.3135L10.6999 11.4451C10.4097 11.7353 9.97447 11.7933 9.62627 11.6192C8.69775 11.1259 7.85628 10.5166 7.10185 9.76217C6.34742 9.00774 5.73808 8.16627 5.2448 7.23774C5.0707 6.88954 5.12874 6.4543 5.4189 6.16414L6.55054 5.0325C6.55054 5.0325 6.55054 5.0325 6.57956 5.0325C6.60857 5.0325 6.60857 5.0325 6.60857 5.06151L7.5371 6.2802L7.15988 6.6284C6.86972 6.91856 6.78267 7.38282 6.98578 7.76004C7.21792 8.2243 7.5371 8.63053 7.88529 8.97872C8.23349 9.32692 8.63972 9.6461 9.10398 9.87823C9.48119 10.0813 9.91644 9.9943 10.2066 9.70413L10.6128 9.2979L11.8025 10.2264C11.8025 10.2264 11.8315 10.2264 11.8315 10.2554C11.8315 10.2845 11.8315 10.3135 11.8315 10.3135Z" fill="#0193C1"/>
</svg>
